<svg width="140" height="190" viewBox="0 0 140 190" fill="none" xmlns="http://www.w3.org/2000/svg">
<rect x="60" y="170" width="20" height="20" fill="#6328B1"/>
<rect x="80" y="150" width="20" height="20" fill="#E9D8FD"/>
<rect x="60" y="150" width="20" height="20" fill="#9F7AEA"/>
<rect x="40" y="130" width="20" height="20" fill="#E9D8FD"/>
<rect x="80" y="130" width="20" height="20" fill="#6328B1"/>
<rect x="120" y="99" width="20" height="20" fill="#4299E1"/>
<path d="M119.5 97.8353L101.252 80.5H119.5V97.8353Z" fill="#4299E1" stroke="#4299E1" stroke-linejoin="bevel"/>
<path d="M100.5 81.1647L118.748 98.5H100.5V81.1647Z" fill="#2B6CB0" stroke="#2B6CB0" stroke-linejoin="bevel"/>
<rect x="120" y="80" width="20" height="19" fill="#E9D8FD"/>
<rect x="80" y="60" width="20" height="20" fill="#BEE3F8"/>
<rect x="100" y="60" width="20" height="20" fill="#6328B1"/>
<rect x="40" width="20" height="20" fill="#4299E1"/>
<rect x="20" y="20" width="20" height="20" fill="#4299E1"/>
<rect y="40" width="20" height="20" fill="#4299E1"/>
<rect x="20" width="20" height="20" fill="#2B6CB0"/>
</svg>
